<?xml version="1.0" encoding="UTF-8" standalone="no"?>
<!DOCTYPE svg PUBLIC "-//W3C//DTD SVG 1.1//EN"
 "http://www.w3.org/Graphics/SVG/1.1/DTD/svg11.dtd">
<!-- Generated by graphviz version 2.44.0 (20200408.0750)
 -->
<!-- Title: dependency&#45;cruiser output Pages: 1 -->
<svg width="286pt" height="138pt"
 viewBox="0.00 0.00 285.51 138.00" xmlns="http://www.w3.org/2000/svg" xmlns:xlink="http://www.w3.org/1999/xlink">
<g id="graph0" class="graph" transform="scale(1 1) rotate(0) translate(4 134)">
<title>dependency&#45;cruiser output</title>
<polygon fill="white" stroke="transparent" points="-4,4 -4,-134 281.51,-134 281.51,4 -4,4"/>
<g id="clust1" class="cluster">
<title>cluster_src</title>
<path fill="#ffffff" stroke="black" stroke-width="2" d="M20,-8C20,-8 257.51,-8 257.51,-8 263.51,-8 269.51,-14 269.51,-20 269.51,-20 269.51,-110 269.51,-110 269.51,-116 263.51,-122 257.51,-122 257.51,-122 20,-122 20,-122 14,-122 8,-116 8,-110 8,-110 8,-20 8,-20 8,-14 14,-8 20,-8"/>
<text text-anchor="middle" x="138.75" y="-109.9" font-family="Helvetica,sans-Serif" font-weight="bold" font-size="9.00">src</text>
</g>
<g id="clust2" class="cluster">
<title>cluster_src/handlers</title>
<path fill="#ffffff" stroke="black" stroke-width="2" d="M197,-42C197,-42 249.51,-42 249.51,-42 255.51,-42 261.51,-48 261.51,-54 261.51,-54 261.51,-83 261.51,-83 261.51,-89 255.51,-95 249.51,-95 249.51,-95 197,-95 197,-95 191,-95 185,-89 185,-83 185,-83 185,-54 185,-54 185,-48 191,-42 197,-42"/>
<text text-anchor="middle" x="223.26" y="-82.9" font-family="Helvetica,sans-Serif" font-weight="bold" font-size="9.00">handlers</text>
</g>
<g id="clust3" class="cluster">
<title>cluster_src/init</title>
<path fill="#ffffff" stroke="black" stroke-width="2" d="M28,-42C28,-42 74,-42 74,-42 80,-42 86,-48 86,-54 86,-54 86,-83 86,-83 86,-89 80,-95 74,-95 74,-95 28,-95 28,-95 22,-95 16,-89 16,-83 16,-83 16,-54 16,-54 16,-48 22,-42 28,-42"/>
<text text-anchor="middle" x="51" y="-82.9" font-family="Helvetica,sans-Serif" font-weight="bold" font-size="9.00">init</text>
</g>
<g id="clust4" class="cluster">
<title>cluster_src/listeners</title>
<path fill="#ffffff" stroke="black" stroke-width="2" d="M106,-42C106,-42 165,-42 165,-42 171,-42 177,-48 177,-54 177,-54 177,-83 177,-83 177,-89 171,-95 165,-95 165,-95 106,-95 106,-95 100,-95 94,-89 94,-83 94,-83 94,-54 94,-54 94,-48 100,-42 106,-42"/>
<text text-anchor="middle" x="135.5" y="-82.9" font-family="Helvetica,sans-Serif" font-weight="bold" font-size="9.00">listeners</text>
</g>
<!-- src/data.js -->
<g id="node1" class="node">
<title>src/data.js</title>
<g id="a_node1"><a xlink:href="../src/data.js" xlink:title="data.js">
<path fill="#ccffcc" stroke="black" d="M71.8,-34.3C71.8,-34.3 30.2,-34.3 30.2,-34.3 27.1,-34.3 24,-31.2 24,-28.1 24,-28.1 24,-21.9 24,-21.9 24,-18.8 27.1,-15.7 30.2,-15.7 30.2,-15.7 71.8,-15.7 71.8,-15.7 74.9,-15.7 78,-18.8 78,-21.9 78,-21.9 78,-28.1 78,-28.1 78,-31.2 74.9,-34.3 71.8,-34.3"/>
<text text-anchor="middle" x="51" y="-22.3" font-family="Helvetica,sans-Serif" font-size="9.00">data.js</text>
</a>
</g>
</g>
<!-- src/handlers/initBoard.js -->
<g id="node2" class="node">
<title>src/handlers/initBoard.js</title>
<g id="a_node2"><a xlink:href="../src/handlers/initBoard.js" xlink:title="initBoard.js">
<path fill="#ffffcc" stroke="black" d="M247.06,-68.3C247.06,-68.3 199.45,-68.3 199.45,-68.3 196.35,-68.3 193.25,-65.2 193.25,-62.1 193.25,-62.1 193.25,-55.9 193.25,-55.9 193.25,-52.8 196.35,-49.7 199.45,-49.7 199.45,-49.7 247.06,-49.7 247.06,-49.7 250.16,-49.7 253.26,-52.8 253.26,-55.9 253.26,-55.9 253.26,-62.1 253.26,-62.1 253.26,-65.2 250.16,-68.3 247.06,-68.3"/>
<text text-anchor="middle" x="223.26" y="-56.3" font-family="Helvetica,sans-Serif" font-size="9.00">initBoard.js</text>
</a>
</g>
</g>
<!-- src/init/index.js -->
<g id="node3" class="node">
<title>src/init/index.js</title>
<g id="a_node3"><a xlink:href="../src/init/index.js" xlink:title="index.js">
<path fill="#ffffcc" stroke="black" d="M71.8,-68.3C71.8,-68.3 30.2,-68.3 30.2,-68.3 27.1,-68.3 24,-65.2 24,-62.1 24,-62.1 24,-55.9 24,-55.9 24,-52.8 27.1,-49.7 30.2,-49.7 30.2,-49.7 71.8,-49.7 71.8,-49.7 74.9,-49.7 78,-52.8 78,-55.9 78,-55.9 78,-62.1 78,-62.1 78,-65.2 74.9,-68.3 71.8,-68.3"/>
<text text-anchor="middle" x="51" y="-56.3" font-family="Helvetica,sans-Serif" font-size="9.00">index.js</text>
</a>
</g>
</g>
<!-- src/listeners/new&#45;game.js -->
<g id="node4" class="node">
<title>src/listeners/new&#45;game.js</title>
<g id="a_node4"><a xlink:href="../src/listeners/new-game.js" xlink:title="new&#45;game.js">
<path fill="#ffffcc" stroke="black" d="M162.8,-68.3C162.8,-68.3 108.2,-68.3 108.2,-68.3 105.1,-68.3 102,-65.2 102,-62.1 102,-62.1 102,-55.9 102,-55.9 102,-52.8 105.1,-49.7 108.2,-49.7 108.2,-49.7 162.8,-49.7 162.8,-49.7 165.9,-49.7 169,-52.8 169,-55.9 169,-55.9 169,-62.1 169,-62.1 169,-65.2 165.9,-68.3 162.8,-68.3"/>
<text text-anchor="middle" x="135.5" y="-56.3" font-family="Helvetica,sans-Serif" font-size="9.00">new&#45;game.js</text>
</a>
</g>
</g>
<!-- src/init/index.js&#45;&gt;src/listeners/new&#45;game.js -->
<g id="edge1" class="edge">
<title>src/init/index.js&#45;&gt;src/listeners/new&#45;game.js</title>
<path fill="none" stroke="#000000" stroke-width="2" stroke-opacity="0.200000" d="M78.1,-59C83.65,-59 89.62,-59 95.53,-59"/>
<polygon fill="#000000" fill-opacity="0.200000" stroke="#000000" stroke-width="2" stroke-opacity="0.200000" points="95.89,-61.1 101.89,-59 95.89,-56.9 95.89,-61.1"/>
</g>
<!-- src/listeners/new&#45;game.js&#45;&gt;src/handlers/initBoard.js -->
<g id="edge2" class="edge">
<title>src/listeners/new&#45;game.js&#45;&gt;src/handlers/initBoard.js</title>
<path fill="none" stroke="#000000" stroke-width="2" stroke-opacity="0.200000" d="M169.41,-59C175.17,-59 181.18,-59 187,-59"/>
<polygon fill="#000000" fill-opacity="0.200000" stroke="#000000" stroke-width="2" stroke-opacity="0.200000" points="187.22,-61.1 193.22,-59 187.22,-56.9 187.22,-61.1"/>
</g>
</g>
</svg>
