<?xml version="1.0" encoding="UTF-8" standalone="no"?>
<!DOCTYPE svg PUBLIC "-//W3C//DTD SVG 1.1//EN"
 "http://www.w3.org/Graphics/SVG/1.1/DTD/svg11.dtd">
<!-- Generated by graphviz version 2.44.0 (20200408.0750)
 -->
<!-- Title: dependency&#45;cruiser output Pages: 1 -->
<svg width="316pt" height="205pt"
 viewBox="0.00 0.00 316.01 205.00" xmlns="http://www.w3.org/2000/svg" xmlns:xlink="http://www.w3.org/1999/xlink">
<g id="graph0" class="graph" transform="scale(1 1) rotate(0) translate(4 201)">
<title>dependency&#45;cruiser output</title>
<polygon fill="white" stroke="transparent" points="-4,4 -4,-201 312.01,-201 312.01,4 -4,4"/>
<g id="clust1" class="cluster">
<title>cluster_src</title>
<path fill="#ffffff" stroke="black" stroke-width="2" d="M20,-8C20,-8 288.01,-8 288.01,-8 294.01,-8 300.01,-14 300.01,-20 300.01,-20 300.01,-177 300.01,-177 300.01,-183 294.01,-189 288.01,-189 288.01,-189 20,-189 20,-189 14,-189 8,-183 8,-177 8,-177 8,-20 8,-20 8,-14 14,-8 20,-8"/>
<text text-anchor="middle" x="154.01" y="-176.9" font-family="Helvetica,sans-Serif" font-weight="bold" font-size="9.00">src</text>
</g>
<g id="clust2" class="cluster">
<title>cluster_src/handlers</title>
<path fill="#ffffff" stroke="black" stroke-width="2" d="M208.51,-16C208.51,-16 280.01,-16 280.01,-16 286.01,-16 292.01,-22 292.01,-28 292.01,-28 292.01,-150 292.01,-150 292.01,-156 286.01,-162 280.01,-162 280.01,-162 208.51,-162 208.51,-162 202.51,-162 196.51,-156 196.51,-150 196.51,-150 196.51,-28 196.51,-28 196.51,-22 202.51,-16 208.51,-16"/>
<text text-anchor="middle" x="244.26" y="-149.9" font-family="Helvetica,sans-Serif" font-weight="bold" font-size="9.00">handlers</text>
</g>
<g id="clust3" class="cluster">
<title>cluster_src/init</title>
<path fill="#ffffff" stroke="black" stroke-width="2" d="M28,-62C28,-62 74,-62 74,-62 80,-62 86,-68 86,-74 86,-74 86,-103 86,-103 86,-109 80,-115 74,-115 74,-115 28,-115 28,-115 22,-115 16,-109 16,-103 16,-103 16,-74 16,-74 16,-68 22,-62 28,-62"/>
<text text-anchor="middle" x="51" y="-102.9" font-family="Helvetica,sans-Serif" font-weight="bold" font-size="9.00">init</text>
</g>
<g id="clust4" class="cluster">
<title>cluster_src/listeners</title>
<path fill="#ffffff" stroke="black" stroke-width="2" d="M106,-31C106,-31 176.51,-31 176.51,-31 182.51,-31 188.51,-37 188.51,-43 188.51,-43 188.51,-134 188.51,-134 188.51,-140 182.51,-146 176.51,-146 176.51,-146 106,-146 106,-146 100,-146 94,-140 94,-134 94,-134 94,-43 94,-43 94,-37 100,-31 106,-31"/>
<text text-anchor="middle" x="141.26" y="-133.9" font-family="Helvetica,sans-Serif" font-weight="bold" font-size="9.00">listeners</text>
</g>
<!-- src/data.js -->
<g id="node1" class="node">
<title>src/data.js</title>
<g id="a_node1"><a xlink:href="../src/data.js" xlink:title="data.js">
<path fill="#ccffcc" stroke="black" d="M71.8,-52.3C71.8,-52.3 30.2,-52.3 30.2,-52.3 27.1,-52.3 24,-49.2 24,-46.1 24,-46.1 24,-39.9 24,-39.9 24,-36.8 27.1,-33.7 30.2,-33.7 30.2,-33.7 71.8,-33.7 71.8,-33.7 74.9,-33.7 78,-36.8 78,-39.9 78,-39.9 78,-46.1 78,-46.1 78,-49.2 74.9,-52.3 71.8,-52.3"/>
<text text-anchor="middle" x="51" y="-40.3" font-family="Helvetica,sans-Serif" font-size="9.00">data.js</text>
</a>
</g>
</g>
<!-- src/handlers/hide&#45;number.js -->
<g id="node2" class="node">
<title>src/handlers/hide&#45;number.js</title>
<g id="a_node2"><a xlink:href="../src/handlers/hide-number.js" xlink:title="hide&#45;number.js">
<path fill="#ffffcc" stroke="black" d="M275.57,-73.3C275.57,-73.3 212.96,-73.3 212.96,-73.3 209.86,-73.3 206.76,-70.2 206.76,-67.1 206.76,-67.1 206.76,-60.9 206.76,-60.9 206.76,-57.8 209.86,-54.7 212.96,-54.7 212.96,-54.7 275.57,-54.7 275.57,-54.7 278.67,-54.7 281.77,-57.8 281.77,-60.9 281.77,-60.9 281.77,-67.1 281.77,-67.1 281.77,-70.2 278.67,-73.3 275.57,-73.3"/>
<text text-anchor="middle" x="244.26" y="-61.3" font-family="Helvetica,sans-Serif" font-size="9.00">hide&#45;number.js</text>
</a>
</g>
</g>
<!-- src/handlers/initBoard.js -->
<g id="node3" class="node">
<title>src/handlers/initBoard.js</title>
<g id="a_node3"><a xlink:href="../src/handlers/initBoard.js" xlink:title="initBoard.js">
<path fill="#ffffcc" stroke="black" d="M268.07,-135.3C268.07,-135.3 220.46,-135.3 220.46,-135.3 217.36,-135.3 214.26,-132.2 214.26,-129.1 214.26,-129.1 214.26,-122.9 214.26,-122.9 214.26,-119.8 217.36,-116.7 220.46,-116.7 220.46,-116.7 268.07,-116.7 268.07,-116.7 271.17,-116.7 274.27,-119.8 274.27,-122.9 274.27,-122.9 274.27,-129.1 274.27,-129.1 274.27,-132.2 271.17,-135.3 268.07,-135.3"/>
<text text-anchor="middle" x="244.26" y="-123.3" font-family="Helvetica,sans-Serif" font-size="9.00">initBoard.js</text>
</a>
</g>
</g>
<!-- src/handlers/open&#45;number.js -->
<g id="node4" class="node">
<title>src/handlers/open&#45;number.js</title>
<g id="a_node4"><a xlink:href="../src/handlers/open-number.js" xlink:title="open&#45;number.js">
<path fill="#ffffcc" stroke="black" d="M277.07,-42.3C277.07,-42.3 211.45,-42.3 211.45,-42.3 208.35,-42.3 205.25,-39.2 205.25,-36.1 205.25,-36.1 205.25,-29.9 205.25,-29.9 205.25,-26.8 208.35,-23.7 211.45,-23.7 211.45,-23.7 277.07,-23.7 277.07,-23.7 280.17,-23.7 283.28,-26.8 283.28,-29.9 283.28,-29.9 283.28,-36.1 283.28,-36.1 283.28,-39.2 280.17,-42.3 277.07,-42.3"/>
<text text-anchor="middle" x="244.26" y="-30.3" font-family="Helvetica,sans-Serif" font-size="9.00">open&#45;number.js</text>
</a>
</g>
</g>
<!-- src/handlers/show&#45;number.js -->
<g id="node5" class="node">
<title>src/handlers/show&#45;number.js</title>
<g id="a_node5"><a xlink:href="../src/handlers/show-number.js" xlink:title="show&#45;number.js">
<path fill="#ffffcc" stroke="black" d="M277.57,-104.3C277.57,-104.3 210.96,-104.3 210.96,-104.3 207.86,-104.3 204.76,-101.2 204.76,-98.1 204.76,-98.1 204.76,-91.9 204.76,-91.9 204.76,-88.8 207.86,-85.7 210.96,-85.7 210.96,-85.7 277.57,-85.7 277.57,-85.7 280.67,-85.7 283.77,-88.8 283.77,-91.9 283.77,-91.9 283.77,-98.1 283.77,-98.1 283.77,-101.2 280.67,-104.3 277.57,-104.3"/>
<text text-anchor="middle" x="244.26" y="-92.3" font-family="Helvetica,sans-Serif" font-size="9.00">show&#45;number.js</text>
</a>
</g>
</g>
<!-- src/init/index.js -->
<g id="node6" class="node">
<title>src/init/index.js</title>
<g id="a_node6"><a xlink:href="../src/init/index.js" xlink:title="index.js">
<path fill="#ffffcc" stroke="black" d="M71.8,-88.3C71.8,-88.3 30.2,-88.3 30.2,-88.3 27.1,-88.3 24,-85.2 24,-82.1 24,-82.1 24,-75.9 24,-75.9 24,-72.8 27.1,-69.7 30.2,-69.7 30.2,-69.7 71.8,-69.7 71.8,-69.7 74.9,-69.7 78,-72.8 78,-75.9 78,-75.9 78,-82.1 78,-82.1 78,-85.2 74.9,-88.3 71.8,-88.3"/>
<text text-anchor="middle" x="51" y="-76.3" font-family="Helvetica,sans-Serif" font-size="9.00">index.js</text>
</a>
</g>
</g>
<!-- src/listeners/new&#45;game.js -->
<g id="node7" class="node">
<title>src/listeners/new&#45;game.js</title>
<g id="a_node7"><a xlink:href="../src/listeners/new-game.js" xlink:title="new&#45;game.js">
<path fill="#ffffcc" stroke="black" d="M168.56,-119.3C168.56,-119.3 113.95,-119.3 113.95,-119.3 110.85,-119.3 107.75,-116.2 107.75,-113.1 107.75,-113.1 107.75,-106.9 107.75,-106.9 107.75,-103.8 110.85,-100.7 113.95,-100.7 113.95,-100.7 168.56,-100.7 168.56,-100.7 171.66,-100.7 174.76,-103.8 174.76,-106.9 174.76,-106.9 174.76,-113.1 174.76,-113.1 174.76,-116.2 171.66,-119.3 168.56,-119.3"/>
<text text-anchor="middle" x="141.26" y="-107.3" font-family="Helvetica,sans-Serif" font-size="9.00">new&#45;game.js</text>
</a>
</g>
</g>
<!-- src/init/index.js&#45;&gt;src/listeners/new&#45;game.js -->
<g id="edge1" class="edge">
<title>src/init/index.js&#45;&gt;src/listeners/new&#45;game.js</title>
<path fill="none" stroke="#000000" stroke-width="2" stroke-opacity="0.200000" d="M78.2,-88.4C83.43,-90.27 88.89,-92.2 94,-94 98.19,-95.47 102.59,-97.01 106.95,-98.53"/>
<polygon fill="#000000" fill-opacity="0.200000" stroke="#000000" stroke-width="2" stroke-opacity="0.200000" points="106.49,-100.59 112.85,-100.57 107.87,-96.62 106.49,-100.59"/>
</g>
<!-- src/listeners/open&#45;number.js -->
<g id="node8" class="node">
<title>src/listeners/open&#45;number.js</title>
<g id="a_node8"><a xlink:href="../src/listeners/open-number.js" xlink:title="open&#45;number.js">
<path fill="#ffffcc" stroke="black" d="M174.07,-57.3C174.07,-57.3 108.44,-57.3 108.44,-57.3 105.34,-57.3 102.24,-54.2 102.24,-51.1 102.24,-51.1 102.24,-44.9 102.24,-44.9 102.24,-41.8 105.34,-38.7 108.44,-38.7 108.44,-38.7 174.07,-38.7 174.07,-38.7 177.17,-38.7 180.27,-41.8 180.27,-44.9 180.27,-44.9 180.27,-51.1 180.27,-51.1 180.27,-54.2 177.17,-57.3 174.07,-57.3"/>
<text text-anchor="middle" x="141.26" y="-45.3" font-family="Helvetica,sans-Serif" font-size="9.00">open&#45;number.js</text>
</a>
</g>
</g>
<!-- src/init/index.js&#45;&gt;src/listeners/open&#45;number.js -->
<g id="edge2" class="edge">
<title>src/init/index.js&#45;&gt;src/listeners/open&#45;number.js</title>
<path fill="none" stroke="#000000" stroke-width="2" stroke-opacity="0.200000" d="M78.2,-69.6C83.43,-67.73 88.89,-65.8 94,-64 98.19,-62.53 102.59,-60.99 106.95,-59.47"/>
<polygon fill="#000000" fill-opacity="0.200000" stroke="#000000" stroke-width="2" stroke-opacity="0.200000" points="107.87,-61.38 112.85,-57.43 106.49,-57.41 107.87,-61.38"/>
</g>
<!-- src/listeners/sneak&#45;peek.js -->
<g id="node9" class="node">
<title>src/listeners/sneak&#45;peek.js</title>
<g id="a_node9"><a xlink:href="../src/listeners/sneak-peek.js" xlink:title="sneak&#45;peek.js">
<path fill="#ffffcc" stroke="black" d="M170.57,-88.3C170.57,-88.3 111.94,-88.3 111.94,-88.3 108.84,-88.3 105.74,-85.2 105.74,-82.1 105.74,-82.1 105.74,-75.9 105.74,-75.9 105.74,-72.8 108.84,-69.7 111.94,-69.7 111.94,-69.7 170.57,-69.7 170.57,-69.7 173.67,-69.7 176.77,-72.8 176.77,-75.9 176.77,-75.9 176.77,-82.1 176.77,-82.1 176.77,-85.2 173.67,-88.3 170.57,-88.3"/>
<text text-anchor="middle" x="141.26" y="-76.3" font-family="Helvetica,sans-Serif" font-size="9.00">sneak&#45;peek.js</text>
</a>
</g>
</g>
<!-- src/init/index.js&#45;&gt;src/listeners/sneak&#45;peek.js -->
<g id="edge3" class="edge">
<title>src/init/index.js&#45;&gt;src/listeners/sneak&#45;peek.js</title>
<path fill="none" stroke="#000000" stroke-width="2" stroke-opacity="0.200000" d="M78,-79C84.76,-79 92.19,-79 99.51,-79"/>
<polygon fill="#000000" fill-opacity="0.200000" stroke="#000000" stroke-width="2" stroke-opacity="0.200000" points="99.6,-81.1 105.6,-79 99.6,-76.9 99.6,-81.1"/>
</g>
<!-- src/listeners/new&#45;game.js&#45;&gt;src/handlers/initBoard.js -->
<g id="edge4" class="edge">
<title>src/listeners/new&#45;game.js&#45;&gt;src/handlers/initBoard.js</title>
<path fill="none" stroke="#000000" stroke-width="2" stroke-opacity="0.200000" d="M174.77,-115.15C185.38,-116.83 197.2,-118.7 208,-120.41"/>
<polygon fill="#000000" fill-opacity="0.200000" stroke="#000000" stroke-width="2" stroke-opacity="0.200000" points="207.97,-122.53 214.22,-121.4 208.62,-118.39 207.97,-122.53"/>
</g>
<!-- src/listeners/open&#45;number.js&#45;&gt;src/handlers/open&#45;number.js -->
<g id="edge5" class="edge">
<title>src/listeners/open&#45;number.js&#45;&gt;src/handlers/open&#45;number.js</title>
<path fill="none" stroke="#000000" stroke-width="2" stroke-opacity="0.200000" d="M180.44,-42.33C186.48,-41.43 192.76,-40.5 198.92,-39.59"/>
<polygon fill="#000000" fill-opacity="0.200000" stroke="#000000" stroke-width="2" stroke-opacity="0.200000" points="199.4,-41.64 205.02,-38.68 198.78,-37.48 199.4,-41.64"/>
</g>
<!-- src/listeners/sneak&#45;peek.js&#45;&gt;src/handlers/hide&#45;number.js -->
<g id="edge6" class="edge">
<title>src/listeners/sneak&#45;peek.js&#45;&gt;src/handlers/hide&#45;number.js</title>
<path fill="none" stroke="#000000" stroke-width="2" stroke-opacity="0.200000" d="M177.02,-73.84C184.66,-72.7 192.83,-71.49 200.74,-70.32"/>
<polygon fill="#000000" fill-opacity="0.200000" stroke="#000000" stroke-width="2" stroke-opacity="0.200000" points="201.09,-72.39 206.72,-69.43 200.47,-68.23 201.09,-72.39"/>
</g>
<!-- src/listeners/sneak&#45;peek.js&#45;&gt;src/handlers/show&#45;number.js -->
<g id="edge7" class="edge">
<title>src/listeners/sneak&#45;peek.js&#45;&gt;src/handlers/show&#45;number.js</title>
<path fill="none" stroke="#000000" stroke-width="2" stroke-opacity="0.200000" d="M177.02,-84.51C183.97,-85.61 191.37,-86.78 198.6,-87.93"/>
<polygon fill="#000000" fill-opacity="0.200000" stroke="#000000" stroke-width="2" stroke-opacity="0.200000" points="198.38,-90.02 204.63,-88.88 199.03,-85.87 198.38,-90.02"/>
</g>
</g>
</svg>
