<?xml version="1.0" encoding="UTF-8" standalone="no"?>
<!DOCTYPE svg PUBLIC "-//W3C//DTD SVG 1.1//EN"
 "http://www.w3.org/Graphics/SVG/1.1/DTD/svg11.dtd">
<!-- Generated by graphviz version 2.44.0 (20200408.0750)
 -->
<!-- Title: dependency&#45;cruiser output Pages: 1 -->
<svg width="309pt" height="143pt"
 viewBox="0.00 0.00 309.02 143.00" xmlns="http://www.w3.org/2000/svg" xmlns:xlink="http://www.w3.org/1999/xlink">
<g id="graph0" class="graph" transform="scale(1 1) rotate(0) translate(4 139)">
<title>dependency&#45;cruiser output</title>
<polygon fill="white" stroke="transparent" points="-4,4 -4,-139 305.02,-139 305.02,4 -4,4"/>
<g id="clust1" class="cluster">
<title>cluster_src</title>
<path fill="#ffffff" stroke="black" stroke-width="2" d="M20,-8C20,-8 281.02,-8 281.02,-8 287.02,-8 293.02,-14 293.02,-20 293.02,-20 293.02,-115 293.02,-115 293.02,-121 287.02,-127 281.02,-127 281.02,-127 20,-127 20,-127 14,-127 8,-121 8,-115 8,-115 8,-20 8,-20 8,-14 14,-8 20,-8"/>
<text text-anchor="middle" x="150.51" y="-114.9" font-family="Helvetica,sans-Serif" font-weight="bold" font-size="9.00">src</text>
</g>
<g id="clust2" class="cluster">
<title>cluster_src/handlers</title>
<path fill="#ffffff" stroke="black" stroke-width="2" d="M201.51,-16C201.51,-16 273.02,-16 273.02,-16 279.02,-16 285.02,-22 285.02,-28 285.02,-28 285.02,-88 285.02,-88 285.02,-94 279.02,-100 273.02,-100 273.02,-100 201.51,-100 201.51,-100 195.51,-100 189.51,-94 189.51,-88 189.51,-88 189.51,-28 189.51,-28 189.51,-22 195.51,-16 201.51,-16"/>
<text text-anchor="middle" x="237.26" y="-87.9" font-family="Helvetica,sans-Serif" font-weight="bold" font-size="9.00">handlers</text>
</g>
<g id="clust3" class="cluster">
<title>cluster_src/init</title>
<path fill="#ffffff" stroke="black" stroke-width="2" d="M28,-45C28,-45 74,-45 74,-45 80,-45 86,-51 86,-57 86,-57 86,-86 86,-86 86,-92 80,-98 74,-98 74,-98 28,-98 28,-98 22,-98 16,-92 16,-86 16,-86 16,-57 16,-57 16,-51 22,-45 28,-45"/>
<text text-anchor="middle" x="51" y="-85.9" font-family="Helvetica,sans-Serif" font-weight="bold" font-size="9.00">init</text>
</g>
<g id="clust4" class="cluster">
<title>cluster_src/listeners</title>
<path fill="#ffffff" stroke="black" stroke-width="2" d="M106,-16C106,-16 169.51,-16 169.51,-16 175.51,-16 181.51,-22 181.51,-28 181.51,-28 181.51,-88 181.51,-88 181.51,-94 175.51,-100 169.51,-100 169.51,-100 106,-100 106,-100 100,-100 94,-94 94,-88 94,-88 94,-28 94,-28 94,-22 100,-16 106,-16"/>
<text text-anchor="middle" x="137.76" y="-87.9" font-family="Helvetica,sans-Serif" font-weight="bold" font-size="9.00">listeners</text>
</g>
<!-- src/data.js -->
<g id="node1" class="node">
<title>src/data.js</title>
<g id="a_node1"><a xlink:href="../src/data.js" xlink:title="data.js">
<path fill="#ccffcc" stroke="black" d="M71.8,-36.3C71.8,-36.3 30.2,-36.3 30.2,-36.3 27.1,-36.3 24,-33.2 24,-30.1 24,-30.1 24,-23.9 24,-23.9 24,-20.8 27.1,-17.7 30.2,-17.7 30.2,-17.7 71.8,-17.7 71.8,-17.7 74.9,-17.7 78,-20.8 78,-23.9 78,-23.9 78,-30.1 78,-30.1 78,-33.2 74.9,-36.3 71.8,-36.3"/>
<text text-anchor="middle" x="51" y="-24.3" font-family="Helvetica,sans-Serif" font-size="9.00">data.js</text>
</a>
</g>
</g>
<!-- src/handlers/initBoard.js -->
<g id="node2" class="node">
<title>src/handlers/initBoard.js</title>
<g id="a_node2"><a xlink:href="../src/handlers/initBoard.js" xlink:title="initBoard.js">
<path fill="#ffffcc" stroke="black" d="M261.07,-73.3C261.07,-73.3 213.46,-73.3 213.46,-73.3 210.36,-73.3 207.26,-70.2 207.26,-67.1 207.26,-67.1 207.26,-60.9 207.26,-60.9 207.26,-57.8 210.36,-54.7 213.46,-54.7 213.46,-54.7 261.07,-54.7 261.07,-54.7 264.17,-54.7 267.27,-57.8 267.27,-60.9 267.27,-60.9 267.27,-67.1 267.27,-67.1 267.27,-70.2 264.17,-73.3 261.07,-73.3"/>
<text text-anchor="middle" x="237.26" y="-61.3" font-family="Helvetica,sans-Serif" font-size="9.00">initBoard.js</text>
</a>
</g>
</g>
<!-- src/handlers/show&#45;number.js -->
<g id="node3" class="node">
<title>src/handlers/show&#45;number.js</title>
<g id="a_node3"><a xlink:href="../src/handlers/show-number.js" xlink:title="show&#45;number.js">
<path fill="#ffffcc" stroke="black" d="M270.57,-42.3C270.57,-42.3 203.96,-42.3 203.96,-42.3 200.86,-42.3 197.76,-39.2 197.76,-36.1 197.76,-36.1 197.76,-29.9 197.76,-29.9 197.76,-26.8 200.86,-23.7 203.96,-23.7 203.96,-23.7 270.57,-23.7 270.57,-23.7 273.67,-23.7 276.77,-26.8 276.77,-29.9 276.77,-29.9 276.77,-36.1 276.77,-36.1 276.77,-39.2 273.67,-42.3 270.57,-42.3"/>
<text text-anchor="middle" x="237.26" y="-30.3" font-family="Helvetica,sans-Serif" font-size="9.00">show&#45;number.js</text>
</a>
</g>
</g>
<!-- src/init/index.js -->
<g id="node4" class="node">
<title>src/init/index.js</title>
<g id="a_node4"><a xlink:href="../src/init/index.js" xlink:title="index.js">
<path fill="#ffffcc" stroke="black" d="M71.8,-71.3C71.8,-71.3 30.2,-71.3 30.2,-71.3 27.1,-71.3 24,-68.2 24,-65.1 24,-65.1 24,-58.9 24,-58.9 24,-55.8 27.1,-52.7 30.2,-52.7 30.2,-52.7 71.8,-52.7 71.8,-52.7 74.9,-52.7 78,-55.8 78,-58.9 78,-58.9 78,-65.1 78,-65.1 78,-68.2 74.9,-71.3 71.8,-71.3"/>
<text text-anchor="middle" x="51" y="-59.3" font-family="Helvetica,sans-Serif" font-size="9.00">index.js</text>
</a>
</g>
</g>
<!-- src/listeners/new&#45;game.js -->
<g id="node5" class="node">
<title>src/listeners/new&#45;game.js</title>
<g id="a_node5"><a xlink:href="../src/listeners/new-game.js" xlink:title="new&#45;game.js">
<path fill="#ffffcc" stroke="black" d="M165.06,-73.3C165.06,-73.3 110.45,-73.3 110.45,-73.3 107.35,-73.3 104.25,-70.2 104.25,-67.1 104.25,-67.1 104.25,-60.9 104.25,-60.9 104.25,-57.8 107.35,-54.7 110.45,-54.7 110.45,-54.7 165.06,-54.7 165.06,-54.7 168.16,-54.7 171.26,-57.8 171.26,-60.9 171.26,-60.9 171.26,-67.1 171.26,-67.1 171.26,-70.2 168.16,-73.3 165.06,-73.3"/>
<text text-anchor="middle" x="137.76" y="-61.3" font-family="Helvetica,sans-Serif" font-size="9.00">new&#45;game.js</text>
</a>
</g>
</g>
<!-- src/init/index.js&#45;&gt;src/listeners/new&#45;game.js -->
<g id="edge1" class="edge">
<title>src/init/index.js&#45;&gt;src/listeners/new&#45;game.js</title>
<path fill="none" stroke="#000000" stroke-width="2" stroke-opacity="0.200000" d="M78.35,-62.62C84.6,-62.77 91.4,-62.93 98.07,-63.09"/>
<polygon fill="#000000" fill-opacity="0.200000" stroke="#000000" stroke-width="2" stroke-opacity="0.200000" points="98.1,-65.19 104.15,-63.23 98.2,-60.99 98.1,-65.19"/>
</g>
<!-- src/listeners/sneak&#45;peek.js -->
<g id="node6" class="node">
<title>src/listeners/sneak&#45;peek.js</title>
<g id="a_node6"><a xlink:href="../src/listeners/sneak-peek.js" xlink:title="sneak&#45;peek.js">
<path fill="#ffffcc" stroke="black" d="M167.07,-42.3C167.07,-42.3 108.44,-42.3 108.44,-42.3 105.34,-42.3 102.24,-39.2 102.24,-36.1 102.24,-36.1 102.24,-29.9 102.24,-29.9 102.24,-26.8 105.34,-23.7 108.44,-23.7 108.44,-23.7 167.07,-23.7 167.07,-23.7 170.17,-23.7 173.27,-26.8 173.27,-29.9 173.27,-29.9 173.27,-36.1 173.27,-36.1 173.27,-39.2 170.17,-42.3 167.07,-42.3"/>
<text text-anchor="middle" x="137.76" y="-30.3" font-family="Helvetica,sans-Serif" font-size="9.00">sneak&#45;peek.js</text>
</a>
</g>
</g>
<!-- src/init/index.js&#45;&gt;src/listeners/sneak&#45;peek.js -->
<g id="edge2" class="edge">
<title>src/init/index.js&#45;&gt;src/listeners/sneak&#45;peek.js</title>
<path fill="none" stroke="#000000" stroke-width="2" stroke-opacity="0.200000" d="M78.35,-52.98C86.41,-50.23 95.37,-47.16 103.8,-44.28"/>
<polygon fill="#000000" fill-opacity="0.200000" stroke="#000000" stroke-width="2" stroke-opacity="0.200000" points="104.54,-46.24 109.54,-42.31 103.19,-42.27 104.54,-46.24"/>
</g>
<!-- src/listeners/new&#45;game.js&#45;&gt;src/handlers/initBoard.js -->
<g id="edge3" class="edge">
<title>src/listeners/new&#45;game.js&#45;&gt;src/handlers/initBoard.js</title>
<path fill="none" stroke="#000000" stroke-width="2" stroke-opacity="0.200000" d="M171.5,-64C180.94,-64 191.28,-64 200.87,-64"/>
<polygon fill="#000000" fill-opacity="0.200000" stroke="#000000" stroke-width="2" stroke-opacity="0.200000" points="201.05,-66.1 207.05,-64 201.05,-61.9 201.05,-66.1"/>
</g>
<!-- src/listeners/sneak&#45;peek.js&#45;&gt;src/handlers/show&#45;number.js -->
<g id="edge4" class="edge">
<title>src/listeners/sneak&#45;peek.js&#45;&gt;src/handlers/show&#45;number.js</title>
<path fill="none" stroke="#000000" stroke-width="2" stroke-opacity="0.200000" d="M173.41,-33C179.32,-33 185.53,-33 191.66,-33"/>
<polygon fill="#000000" fill-opacity="0.200000" stroke="#000000" stroke-width="2" stroke-opacity="0.200000" points="191.74,-35.1 197.74,-33 191.74,-30.9 191.74,-35.1"/>
</g>
</g>
</svg>
